<svg width="10" height="10" viewBox="0 0 10 10" fill="none" xmlns="http://www.w3.org/2000/svg">
<path d="M0.274718 0.274718C0.361681 0.18763 0.464961 0.118541 0.578649 0.071402C0.692337 0.0242634 0.814203 0 0.937276 0C1.06035 0 1.18222 0.0242634 1.2959 0.071402C1.40959 0.118541 1.51287 0.18763 1.59984 0.274718L5.00014 3.67377L8.40044 0.274718C8.48745 0.187709 8.59074 0.11869 8.70442 0.0716014C8.81811 0.0245127 8.93995 0.000276593 9.063 0.00027659C9.18605 0.000276588 9.30789 0.0245127 9.42157 0.0716014C9.53526 0.11869 9.63855 0.187709 9.72556 0.274718C9.81257 0.361726 9.88159 0.46502 9.92867 0.578702C9.97576 0.692384 10 0.814228 10 0.937276C10 1.06033 9.97576 1.18217 9.92867 1.29585C9.88159 1.40953 9.81257 1.51283 9.72556 1.59984L6.32651 5.00014L9.72556 8.40044C9.90128 8.57616 10 8.81449 10 9.063C10 9.31151 9.90128 9.54984 9.72556 9.72556C9.54984 9.90128 9.31151 10 9.063 10C8.81449 10 8.57616 9.90128 8.40044 9.72556L5.00014 6.32651L1.59984 9.72556C1.42411 9.90128 1.18578 10 0.937276 10C0.688769 10 0.450439 9.90128 0.274718 9.72556C0.098996 9.54984 0.00027659 9.31151 0.00027659 9.063C0.00027659 8.81449 0.098996 8.57616 0.274718 8.40044L3.67377 5.00014L0.274718 1.59984C0.18763 1.51287 0.118541 1.40959 0.071402 1.2959C0.0242634 1.18222 0 1.06035 0 0.937276C0 0.814203 0.0242634 0.692337 0.071402 0.578649C0.118541 0.464961 0.18763 0.361681 0.274718 0.274718Z" fill="#F2F2F4"/>
</svg>
